<svg width="16" height="16" viewBox="0 0 16 16" fill="none" xmlns="http://www.w3.org/2000/svg">
<path fill-rule="evenodd" clip-rule="evenodd" d="M4 3C4 4.10457 3.10457 5 2 5C0.895431 5 0 4.10457 0 3C0 1.89543 0.895431 1 2 1C3.10457 1 4 1.89543 4 3ZM4 8C4 9.10457 3.10457 10 2 10C0.895431 10 0 9.10457 0 8C0 6.89543 0.895431 6 2 6C3.10457 6 4 6.89543 4 8ZM2 15C3.10457 15 4 14.1046 4 13C4 11.8954 3.10457 11 2 11C0.895431 11 0 11.8954 0 13C0 14.1046 0.895431 15 2 15ZM10 3C10 4.10457 9.10457 5 8 5C6.89543 5 6 4.10457 6 3C6 1.89543 6.89543 1 8 1C9.10457 1 10 1.89543 10 3ZM8 10C9.10457 10 10 9.10457 10 8C10 6.89543 9.10457 6 8 6C6.89543 6 6 6.89543 6 8C6 9.10457 6.89543 10 8 10ZM10 13C10 14.1046 9.10457 15 8 15C6.89543 15 6 14.1046 6 13C6 11.8954 6.89543 11 8 11C9.10457 11 10 11.8954 10 13ZM14 5C15.1046 5 16 4.10457 16 3C16 1.89543 15.1046 1 14 1C12.8954 1 12 1.89543 12 3C12 4.10457 12.8954 5 14 5ZM16 8C16 9.10457 15.1046 10 14 10C12.8954 10 12 9.10457 12 8C12 6.89543 12.8954 6 14 6C15.1046 6 16 6.89543 16 8ZM14 15C15.1046 15 16 14.1046 16 13C16 11.8954 15.1046 11 14 11C12.8954 11 12 11.8954 12 13C12 14.1046 12.8954 15 14 15Z" fill="white"/>
</svg>
