<svg width="16" height="16" viewBox="0 0 16 16" fill="none" xmlns="http://www.w3.org/2000/svg">
<path d="M12.7059 0H3.52941C2.71309 0 2 0.699375 2 1.5V14.5C2 15.3 2.71309 16 3.52941 16H12.7059C13.5222 16 14.2353 15.3006 14.2353 14.5V1.5C14.2353 0.699375 13.5216 0 12.7059 0ZM4.03922 6.5C4.03922 6.225 4.26863 6 4.54902 6H5.56863C5.84902 6 6.07843 6.225 6.07843 6.5V7.5C6.07843 7.775 5.84902 8 5.56863 8H4.54902C4.26863 8 4.03922 7.775 4.03922 7.5V6.5ZM4.03922 9.5C4.03922 9.225 4.26863 9 4.54902 9H5.56863C5.84902 9 6.07843 9.225 6.07843 9.5V10.5C6.07843 10.775 5.84902 11 5.56863 11H4.54902C4.26863 11 4.03922 10.775 4.03922 10.5V9.5ZM9.13726 13.5C9.13726 13.775 8.90788 14 8.62745 14H4.54902C4.26863 14 4.03922 13.775 4.03922 13.5V12.5C4.03922 12.225 4.26863 12 4.54902 12H8.62745C8.90788 12 9.13726 12.225 9.13726 12.5V13.5ZM9.13726 10.5C9.13726 10.775 8.90788 11 8.62745 11H7.60784C7.32745 11 7.09804 10.775 7.09804 10.5V9.5C7.09804 9.225 7.32745 9 7.60784 9H8.62745C8.90784 9 9.13726 9.225 9.13726 9.5V10.5ZM9.13726 7.5C9.13726 7.775 8.90784 8 8.62745 8H7.60784C7.32745 8 7.09804 7.775 7.09804 7.5V6.5C7.09804 6.225 7.32745 6 7.60784 6H8.62745C8.90784 6 9.13726 6.225 9.13726 6.5V7.5ZM12.1961 13.5C12.1961 13.775 11.9667 14 11.6863 14H10.6667C10.3863 14 10.1569 13.775 10.1569 13.5V12.5C10.1569 12.225 10.3863 12 10.6667 12H11.6863C11.9667 12 12.1961 12.225 12.1961 12.5V13.5ZM12.1961 10.5C12.1961 10.775 11.9667 11 11.6863 11H10.6667C10.3863 11 10.1569 10.775 10.1569 10.5V9.5C10.1569 9.225 10.3863 9 10.6667 9H11.6863C11.9667 9 12.1961 9.225 12.1961 9.5V10.5ZM12.1961 7.5C12.1961 7.775 11.9667 8 11.6863 8H10.6667C10.3863 8 10.1569 7.775 10.1569 7.5V6.5C10.1569 6.225 10.3863 6 10.6667 6H11.6863C11.9667 6 12.1961 6.225 12.1961 6.5V7.5ZM12.1961 4.5C12.1961 4.775 11.9667 5 11.6863 5H4.54902C4.26863 5 4.03922 4.775 4.03922 4.5V2.5C4.03922 2.225 4.26863 2 4.54902 2H11.6863C11.9667 2 12.1961 2.225 12.1961 2.5V4.5Z" fill="white"/>
</svg>
