<svg width="16" height="16" viewBox="0 0 16 16" fill="none" xmlns="http://www.w3.org/2000/svg">
<g clip-path="url(#clip0_14275_1168)">
<path d="M8.03059 0.492732C8.03059 0.224523 8.21068 0 8.50297 0C12.1551 0 15.1164 2.98076 15.1164 6.65693C15.1164 6.9244 14.892 7.13243 14.6263 7.13243H8.03059V0.492732ZM0 8.08342C0 4.47857 2.66013 1.49603 6.08494 1.01786C6.38314 0.980412 6.61342 1.19944 6.61342 1.47433V8.55892L11.234 13.2099C11.4318 13.409 11.417 13.7359 11.1897 13.8993C10.0323 14.7285 8.61517 15.2158 7.08581 15.2158C3.17385 15.2158 0 12.0241 0 8.08342ZM15.5415 8.55892C15.8132 8.55892 16.0317 8.79072 15.9962 9.06413C15.7689 10.7254 14.9717 12.2024 13.8144 13.2931C13.6372 13.4357 13.3597 13.4476 13.1885 13.2752L8.50297 8.55892H15.5415Z" fill="white"/>
</g>
<defs>
<clipPath id="clip0_14275_1168">
<rect width="16" height="16" fill="white"/>
</clipPath>
</defs>
</svg>
