<svg width="16" height="16" viewBox="0 0 16 16" fill="none" xmlns="http://www.w3.org/2000/svg">
<path d="M2.4 7.69565C3.2825 7.69565 4 6.99375 4 6.13043C4 5.26712 3.2825 4.56522 2.4 4.56522C1.5175 4.56522 0.8 5.26712 0.8 6.13043C0.8 6.99375 1.5175 7.69565 2.4 7.69565ZM13.6 7.69565C14.4825 7.69565 15.2 6.99375 15.2 6.13043C15.2 5.26712 14.4825 4.56522 13.6 4.56522C12.7175 4.56522 12 5.26712 12 6.13043C12 6.99375 12.7175 7.69565 13.6 7.69565ZM14.4 8.47826H12.8C12.36 8.47826 11.9625 8.6519 11.6725 8.93315C12.68 9.47364 13.395 10.4495 13.55 11.6087H15.2C15.6425 11.6087 16 11.259 16 10.8261V10.0435C16 9.18016 15.2825 8.47826 14.4 8.47826ZM8 8.47826C9.5475 8.47826 10.8 7.25299 10.8 5.73913C10.8 4.22527 9.5475 3 8 3C6.4525 3 5.2 4.22527 5.2 5.73913C5.2 7.25299 6.4525 8.47826 8 8.47826ZM9.92 9.26087H9.7125C9.1925 9.50543 8.615 9.65217 8 9.65217C7.385 9.65217 6.81 9.50543 6.2875 9.26087H6.08C4.49 9.26087 3.2 10.5228 3.2 12.0783V12.7826C3.2 13.4307 3.7375 13.9565 4.4 13.9565H11.6C12.2625 13.9565 12.8 13.4307 12.8 12.7826V12.0783C12.8 10.5228 11.51 9.26087 9.92 9.26087ZM4.3275 8.93315C4.0375 8.6519 3.64 8.47826 3.2 8.47826H1.6C0.7175 8.47826 0 9.18016 0 10.0435V10.8261C0 11.259 0.3575 11.6087 0.8 11.6087H2.4475C2.605 10.4495 3.32 9.47364 4.3275 8.93315Z" fill="white"/>
</svg>
