<svg width="16" height="16" viewBox="0 0 16 16" fill="none" xmlns="http://www.w3.org/2000/svg">
<g clip-path="url(#clip0_14275_1183)">
<path fill-rule="evenodd" clip-rule="evenodd" d="M8.90461 3.03004C8.90461 3.45777 8.80812 3.70385 8.65196 3.84313L12.9685 5.13119C13.0867 5.02925 13.2406 4.96712 13.4093 4.96712C13.7819 4.96712 14.0839 5.26801 14.0839 5.63919C14.0839 5.90899 13.924 6.141 13.6937 6.24795L15.2044 10.5938C15.6834 10.67 16 10.7824 16 10.9309C16 11.5407 14.8061 12.035 13.3333 12.035C11.8606 12.035 10.6667 11.5407 10.6667 10.9309C10.6667 10.7731 11.0243 10.656 11.5543 10.5799L13.0701 6.2194C12.931 6.13851 12.8237 6.00966 12.771 5.85535C12.7201 5.64382 12.6017 5.5103 12.4157 5.4548C12.1933 5.38846 11.9756 5.38095 11.7324 5.37258C11.4252 5.36199 11.0775 5.35001 10.6289 5.21616L8.43576 4.56176V9.03169C8.60657 9.1536 8.71822 9.35251 8.71822 9.57781C8.71822 9.72725 8.6687 9.86482 8.58586 9.97642C8.80864 10.1417 8.95356 10.4052 8.95356 10.7032C8.95356 11.0637 8.74175 11.3742 8.43576 11.5202V12.4534C9.4317 12.5054 10.1904 12.7739 10.1904 13.0973C10.1904 13.1027 10.1902 13.1082 10.1898 13.1136C11.7973 13.2522 12.9072 13.5473 12.9072 13.889L12.9151 14.3657C12.9151 14.8405 10.7766 15.2214 8.13373 15.2214C5.4909 15.2214 3.35241 14.8327 3.35241 14.3579L3.33673 13.889C3.33673 13.5528 4.41146 13.2617 5.97746 13.1204C5.97659 13.1127 5.97616 13.105 5.97616 13.0973C5.97616 12.7791 6.71053 12.5141 7.68267 12.4561V11.5353C7.35974 11.396 7.13358 11.0761 7.13358 10.7032C7.13358 10.4053 7.2785 10.1417 7.50127 9.97647C7.41848 9.86487 7.36892 9.72734 7.36892 9.57786C7.36892 9.33905 7.49431 9.12988 7.68267 9.01068V4.33707L5.18156 3.5907C5.01511 3.54103 4.77147 3.40912 4.51113 3.26818C4.21251 3.10651 3.89194 2.93296 3.64073 2.85799C3.46667 2.80605 3.288 2.8437 3.10474 2.97094C3.06943 2.99968 3.03107 3.02468 2.99036 3.04592L4.49775 7.38254C4.99899 7.45876 5.33331 7.5732 5.33331 7.72587C5.33331 8.33562 4.13941 8.82992 2.66665 8.82992C1.1939 8.82992 0 8.33562 0 7.72587C0 7.57777 0.314617 7.46564 0.791021 7.38949L2.31173 3.0146C2.12624 2.89484 2.0032 2.68721 2.0032 2.45061C2.0032 2.07943 2.30524 1.77854 2.67783 1.77854C2.98137 1.77854 3.23794 1.97824 3.32271 2.25292L7.19921 3.40965C7.17792 3.30254 7.16652 3.17701 7.16652 3.03004C7.16652 2.45744 7.4562 1.78076 8.03557 1C8.61493 1.78076 8.90461 2.45744 8.90461 3.03004ZM13.5603 6.29367L15.0471 10.5709C14.1089 10.4452 12.6797 10.4413 11.7111 10.5592L13.1994 6.27754C13.2655 6.29911 13.336 6.31116 13.4094 6.31116C13.4614 6.31116 13.5117 6.30474 13.5603 6.29367ZM0.948425 7.3664L2.43891 3.07851C2.51328 3.10659 2.59358 3.12268 2.67783 3.12268C2.74057 3.12268 2.80105 3.11349 2.85866 3.09754L4.34051 7.36056C3.37014 7.23597 1.90331 7.23791 0.948425 7.3664Z" fill="white"/>
</g>
<defs>
<clipPath id="clip0_14275_1183">
<rect width="16" height="16" fill="white"/>
</clipPath>
</defs>
</svg>
