<svg width="16" height="16" viewBox="0 0 16 16" fill="none" xmlns="http://www.w3.org/2000/svg">
<path d="M13.4675 1H3.07792C1.92922 1 1 1.89437 1 3V13C1 14.1056 1.92922 15 3.07792 15H13.4675C14.6162 15 15.5455 14.1056 15.5455 13V3C15.5455 1.89437 14.6169 1 13.4675 1ZM5.15584 6C4.58442 6 4.11688 5.55 4.11688 5C4.11688 4.45 4.58377 4 5.15584 4C5.72792 4 6.19481 4.44937 6.19481 5C6.19481 5.55062 5.72727 6 5.15584 6ZM11.3896 12C10.8175 12 10.3506 11.5506 10.3506 11C10.3506 10.4494 10.8175 10 11.3896 10C11.9617 10 12.4286 10.4494 12.4286 11C12.4286 11.5506 11.961 12 11.3896 12Z" fill="white"/>
</svg>
