<svg width="16" height="16" viewBox="0 0 16 16" fill="none" xmlns="http://www.w3.org/2000/svg">
<g clip-path="url(#clip0_14275_571)">
<path d="M15.7803 6.23007L15.0732 5.52298C14.7803 5.23007 14.3054 5.23007 14.0125 5.52298L13.8358 5.69976L10.3002 2.16424L10.477 1.98746C10.7699 1.69455 10.7699 1.21968 10.477 0.926802L9.7699 0.219679C9.477 -0.0732264 9.00212 -0.0732264 8.70925 0.219679L4.82017 4.10876C4.52726 4.40167 4.52726 4.87654 4.82017 5.16941L5.52726 5.87651C5.82016 6.16941 6.29504 6.16941 6.58791 5.87651L6.76469 5.69973L8.00213 6.93716L5.46963 9.46965L5.29285 9.29287C4.90232 8.90234 4.26917 8.90234 3.87864 9.29287L0.292898 12.8787C-0.0976325 13.2692 -0.0976325 13.9024 0.292898 14.2929L1.70711 15.7071C2.09764 16.0976 2.7308 16.0976 3.12133 15.7071L6.7071 12.1213C7.09763 11.7308 7.09763 11.0976 6.7071 10.7071L6.53032 10.5303L9.06281 7.99784L10.3002 9.23528L10.1235 9.41206C9.83056 9.70496 9.83056 10.1798 10.1235 10.4727L10.8306 11.1798C11.1235 11.4727 11.5983 11.4727 11.8912 11.1798L15.7803 7.29072C16.0732 6.99785 16.0732 6.52297 15.7803 6.23007Z" fill="white"/>
</g>
<defs>
<clipPath id="clip0_14275_571">
<rect width="16" height="16" fill="white"/>
</clipPath>
</defs>
</svg>
