<svg width="16" height="16" viewBox="0 0 16 16" fill="none" xmlns="http://www.w3.org/2000/svg">
<g clip-path="url(#clip0_14275_658)">
<path fill-rule="evenodd" clip-rule="evenodd" d="M16 8C16 12.4183 12.4183 16 8 16C3.58172 16 0 12.4183 0 8C0 3.58172 3.58172 0 8 0C12.4183 0 16 3.58172 16 8ZM5.75002 6.9002C5.75002 8.08353 6.70002 9.03353 7.88335 9.03353C9.06668 9.03353 10.0167 8.08353 10.0167 6.9002C10.0167 5.71686 9.06668 4.76686 7.88335 4.76686C6.70002 4.76686 5.75002 5.71686 5.75002 6.9002ZM11.0834 6.9002C11.0834 5.13353 9.65002 3.7002 7.88335 3.7002C6.11668 3.7002 4.68335 5.13353 4.68335 6.9002C4.68335 8.66686 6.11668 10.1002 7.88335 10.1002C9.65002 10.1002 11.0834 8.66686 11.0834 6.9002ZM10.9334 11.0169C11.15 10.8169 11.15 10.4835 10.9334 10.2669C10.7334 10.0502 10.3834 10.0502 10.1834 10.2669L8.05002 12.4002C7.83335 12.6002 7.83335 12.9335 8.05002 13.1502C8.25002 13.3669 8.58335 13.3669 8.80002 13.1502L10.9334 11.0169ZM11.6334 4.76686C11.9334 4.76686 12.1667 4.53353 12.1667 4.23353C12.1667 3.93353 11.9167 3.7002 11.6334 3.7002C11.3334 3.7002 11.1 3.93353 11.1 4.23353C11.1 4.53353 11.3334 4.76686 11.6334 4.76686Z" fill="white"/>
</g>
<defs>
<clipPath id="clip0_14275_658">
<rect width="16" height="16" fill="white"/>
</clipPath>
</defs>
</svg>
