<svg width="16" height="16" viewBox="0 0 16 16" fill="none" xmlns="http://www.w3.org/2000/svg">
<path d="M0.571429 3.2915H15.4286C15.7442 3.2915 16 3.03035 16 2.70817V1.24984C16 0.927655 15.7442 0.666504 15.4286 0.666504H0.571429C0.255821 0.666504 0 0.927655 0 1.24984V2.70817C0 3.03035 0.255821 3.2915 0.571429 3.2915ZM0.571429 9.12484H15.4286C15.7442 9.12484 16 8.86369 16 8.5415V7.08317C16 6.76099 15.7442 6.49984 15.4286 6.49984H0.571429C0.255821 6.49984 0 6.76099 0 7.08317V8.5415C0 8.86369 0.255821 9.12484 0.571429 9.12484ZM0.571429 14.9582H15.4286C15.7442 14.9582 16 14.697 16 14.3748V12.9165C16 12.5943 15.7442 12.3332 15.4286 12.3332H0.571429C0.255821 12.3332 0 12.5943 0 12.9165V14.3748C0 14.697 0.255821 14.9582 0.571429 14.9582Z" fill="white"/>
</svg>
