<svg width="16" height="16" viewBox="0 0 16 16" fill="none" xmlns="http://www.w3.org/2000/svg">
<path fill-rule="evenodd" clip-rule="evenodd" d="M4.69791 1L12.7429 1.35967L16 8.59809L11.4048 15.2135L3.31611 14.6954L0 6.85264L4.69791 1ZM10.596 5.1724L4.76547 7.72033L9.75017 11.5752L10.596 5.1724ZM9.92093 3.89566L5.2614 1.88898L4.28262 6.10812L9.92093 3.89566ZM8.7399 12.5451L3.67591 8.92836L3.7984 13.8293L8.7399 12.5451ZM15.1911 8.58213L11.7403 5.0797L10.8295 11.8147L15.1911 8.58213ZM9.92719 13.3329L5.65638 14.4494L10.6788 14.7711L9.92719 13.3329ZM14.5168 10.1712L10.7783 12.9567L11.5211 14.4088L14.5168 10.1712ZM12.7484 2.37101L12.0223 3.86197L14.7251 6.6099L12.7484 2.37101ZM11.8437 1.65754L7.09765 1.46485L11.0126 3.1776L11.8437 1.65754ZM4.00483 2.34702L0.680515 6.54559L2.90309 7.01646L4.00483 2.34702ZM2.76908 7.84006L0.535787 7.36713L2.86605 12.8581L2.76908 7.84006Z" fill="white"/>
</svg>
