<svg width="48" height="43" viewBox="0 0 48 43" fill="none" xmlns="http://www.w3.org/2000/svg">
<path fill-rule="evenodd" clip-rule="evenodd" d="M14.0937 0L38.2287 1.079L48 22.7943L34.2145 42.6406L9.94832 41.0863L0 17.5579L14.0937 0ZM31.7879 12.5172L14.2964 20.161L29.2505 31.7256L31.7879 12.5172ZM29.7628 8.68699L15.7842 2.66695L12.8478 15.3244L29.7628 8.68699ZM26.2197 34.6354L11.0277 23.7851L11.3952 38.4879L26.2197 34.6354ZM45.5734 22.7464L35.2209 12.2391L32.4884 32.4442L45.5734 22.7464ZM29.7816 36.9987L16.9691 40.3482L32.0365 41.3132L29.7816 36.9987ZM43.5503 27.5136L32.3348 35.8702L34.5634 40.2263L43.5503 27.5136ZM38.2453 4.11304L36.067 8.5859L44.1752 16.8297L38.2453 4.11304ZM35.5312 1.97263L21.293 1.39456L33.0378 6.53279L35.5312 1.97263ZM12.0145 4.04105L2.04155 16.6368L8.70928 18.0494L12.0145 4.04105ZM8.30723 20.5202L1.60736 19.1014L8.59816 35.5742L8.30723 20.5202Z" fill="white"/>
</svg>
